<svg viewBox="0 0 48 48" xmlns="http://www.w3.org/2000/svg">
  <rect width="48" height="48" rx="10" fill="#0c0a09"/>
  <path d="M24 8c3.2 4.2 4.5 7.5 4.5 10.4 0 3-2 5.1-4.5 5.7-2.5-.6-4.5-2.7-4.5-5.7C19.5 15.5 20.8 12.2 24 8Z" fill="#14b8a6"/>
  <path d="M24 24.6c-3.4-2.2-7.9-2.9-12-2.2-.9.2-1.6 1-1.6 2v11c0 1.2 1.1 2.1 2.3 1.9 3.4-.5 7.3.1 10.2 2 .6.4 1.4.4 1.1-.8V25.3c0-.3-.1-.5-.4-.7Z" fill="#e7e5e4"/>
  <path d="M24 24.6c3.4-2.2 7.9-2.9 12-2.2.9.2 1.6 1 1.6 2v11c0 1.2-1.1 2.1-2.3 1.9-3.4-.5-7.3.1-10.2 2-.6.4-1.4.4-1.1-.8V25.3c0-.3.1-.5.4-.7Z" fill="#f5f5f4"/>
</svg>
